<svg width="75" height="48" viewBox="0 0 75 48" fill="none" xmlns="http://www.w3.org/2000/svg">
<path fill-rule="evenodd" clip-rule="evenodd" d="M9.00132 14.6034C9.63027 14.5996 11.4995 14.4313 12.2912 17.1034C12.8245 18.9034 13.6741 21.8519 14.8399 25.9489H15.3147C16.5649 21.6296 17.4238 18.6811 17.8912 17.1034C18.6912 14.4034 20.6912 14.6034 21.4912 14.6034L27.6634 14.6034V33.8034H21.3725V22.4885H20.9507L17.4438 33.8034H12.7108L9.20392 22.4802H8.78208V33.8034H2.49121V14.6034L9.00132 14.6034ZM36.697 14.6034V25.9267H37.1988L41.4646 16.6157C42.2926 14.7627 44.0575 14.6034 44.0575 14.6034H50.1452V33.8034H43.7229V22.4802H43.2211L39.0389 31.7912C38.2109 33.6357 36.3624 33.8034 36.3624 33.8034H30.2747V14.6034H36.697ZM72.3433 23.7274C71.4475 26.266 68.6342 28.0841 65.5195 28.0841H58.7845V33.8034H52.6773V23.7274H72.3433Z" fill="#0F754E"/>
<path fill-rule="evenodd" clip-rule="evenodd" d="M65.8139 14.6035H52.3569C52.6772 18.8781 56.3583 22.5374 60.1691 22.5374H72.7675C73.4946 18.9847 70.9918 14.6035 65.8139 14.6035Z" fill="url(#paint0_linear_4059_1935)"/>
<defs>
<linearGradient id="paint0_linear_4059_1935" x1="2105.77" y1="513.679" x2="52.3569" y2="513.679" gradientUnits="userSpaceOnUse">
<stop stop-color="#1F5CD7"/>
<stop offset="1" stop-color="#02AEFF"/>
</linearGradient>
</defs>
</svg>
