<svg width="74" height="48" viewBox="0 0 74 48" fill="none" xmlns="http://www.w3.org/2000/svg">
<path d="M32.0559 35.1828H26.5312L29.9868 13.8862H35.5112L32.0559 35.1828Z" fill="#00579F"/>
<path d="M52.0837 14.4067C50.994 13.9758 49.2657 13.5 47.1285 13.5C41.6728 13.5 37.8308 16.3998 37.8073 20.5457C37.7619 23.6045 40.558 25.3034 42.6492 26.3233C44.7866 27.3655 45.5132 28.0457 45.5132 28.9747C45.4914 30.4014 43.786 31.059 42.1954 31.059C39.9897 31.059 38.8079 30.72 37.0118 29.9262L36.2843 29.586L35.5112 34.3666C36.807 34.955 39.1942 35.4771 41.6728 35.5C47.4696 35.5 51.2436 32.6451 51.2883 28.227C51.3103 25.8027 49.8339 23.945 46.6509 22.4271C44.7186 21.4526 43.5353 20.7956 43.5353 19.7986C43.5579 18.8922 44.5361 17.9638 46.7174 17.9638C48.5134 17.9184 49.833 18.3487 50.8327 18.7793L51.3324 19.0054L52.0837 14.4067Z" fill="#00579F"/>
<path d="M59.4265 27.6382C59.8815 26.4147 61.6322 21.6796 61.6322 21.6796C61.6092 21.725 62.0863 20.4335 62.3591 19.6407L62.7452 21.4757C62.7452 21.4757 63.7914 26.5734 64.0186 27.6382C63.1551 27.6382 60.5177 27.6382 59.4265 27.6382ZM66.246 13.8862H61.9727C60.6549 13.8862 59.6537 14.2711 59.0851 15.6532L50.8789 35.1825H56.6758C56.6758 35.1825 57.6301 32.554 57.8353 31.9879C58.4712 31.9879 64.1104 31.9879 64.9285 31.9879C65.0871 32.7356 65.5877 35.1825 65.5877 35.1825H70.703L66.246 13.8862Z" fill="#00579F"/>
<path d="M21.9173 13.8862L16.5068 28.4085L15.9156 25.4632C14.9153 22.0647 11.7782 18.3724 8.27734 16.5364L13.2331 35.1602H19.0753L27.7592 13.8862H21.9173Z" fill="#00579F"/>
<path d="M11.4825 13.8862H2.59386L2.50293 14.3165C9.43664 16.0838 14.0287 20.3438 15.9154 25.4641L13.9831 15.6764C13.665 14.3162 12.6873 13.9311 11.4825 13.8862Z" fill="#FAA61A"/>
</svg>
